<svg xmlns="http://www.w3.org/2000/svg" viewBox="0 0 2000 2000"><defs><style>.a{fill:#fff}</style></defs><path d="M758,122.74,437.56,519.34C470.37,249.22,642.37,155.36,758,122.74Z" class="a"/><path d="M897.62,105.78,437.56,674.1V595.19L823.67,108.91c25.59-3.56,41.41-3.56,41.41-3.56A289.64,289.64,0,0,1,897.62,105.78Z" class="a"/><path d="M1004.29,124.8,437.56,825V750L946.22,111.29A472,472,0,0,1,1004.29,124.8Z" class="a"/><path d="M531.52,1363.61l0,0v-.09A.22.22,0,0,0,531.52,1363.61Z" class="a"/><path d="M535.85,1287.72a.15.15,0,0,0,0,.1v-.12Z" class="a"/><line x1="1129.49" x2="1130.11" y1="1781.89" y2="1782.57" class="a"/><path d="M531.52,1363.61l0,0v-.09A.22.22,0,0,0,531.52,1363.61Z" class="a"/><path d="M535.85,1287.72a.15.15,0,0,0,0,.1v-.12Z" class="a"/><path d="M437.56,519.34,758,122.74C642.37,155.36,470.37,249.22,437.56,519.34Zm427.52-414s-15.82,0-41.41,3.56L437.56,595.19V674.1L897.62,105.78A289.64,289.64,0,0,0,865.08,105.35Zm81.14,5.94.11-.13m98.12,27.76.54-.68m-40.62-13.54-.08.1m-58.07-13.51L437.56,750v75L1004.29,124.8A472,472,0,0,0,946.22,111.29Z" class="a"/><line x1="946.33" x2="946.22" y1="111.16" y2="111.29" class="a"/><line x1="1004.29" x2="1004.37" y1="124.8" y2="124.7" class="a"/><line x1="1044.99" x2="1044.45" y1="138.24" y2="138.92" class="a"/><path d="M531.52,1363.61l0,0v-.09A.22.22,0,0,0,531.52,1363.61Z" class="a"/><path d="M535.85,1287.72a.15.15,0,0,0,0,.1v-.12Z" class="a"/><path d="M437.56,519.34,758,122.74C642.37,155.36,470.37,249.22,437.56,519.34Zm427.52-414s-15.82,0-41.41,3.56L437.56,595.19V674.1L897.62,105.78A289.64,289.64,0,0,0,865.08,105.35Zm81.14,5.94.11-.13m98.12,27.76.54-.68m-40.62-13.54-.08.1m-58.07-13.51L437.56,750v75L1004.29,124.8A472,472,0,0,0,946.22,111.29Z" class="a"/><path d="M1130.11,1782.57l-.62-.68" class="a"/><path d="M531.52,1363.61l0,0v-.09A.22.22,0,0,0,531.52,1363.61Z" class="a"/><path d="M535.85,1287.72a.15.15,0,0,0,0,.1v-.12Z" class="a"/><path d="M1219.1,813.38s112.2-89,90.92-334.67c-45-205.19-162.59-298-265.57-339.79L437.56,900.84V1386s32.89,472,562.94,508.78c127.68,0,532-67.71,562.94-564.88C1563.44,948.8,1219.1,813.38,1219.1,813.38ZM532.35,1391.8q-.72-14.4-.83-28.19l0,0v-.09a.22.22,0,0,0,0,.11l393,431.65C804.53,1772.64,580,1690.47,532.35,1391.8Zm468.15,412.05L535.85,1287.72a.15.15,0,0,0,0,.1v-.12l0,0a426.42,426.42,0,0,1,14.55-68.92l523.17,576.44.23.25C1029.77,1803.85,1000.5,1803.85,1000.5,1803.85Zm129-22L572.2,1163.51C645.36,1016.81,801,980.29,903.77,981.68c143.16,1.94,245.69-100.59,245.69-100.59s309.52,89,323.06,462.35C1441.68,1636.92,1258.37,1743.32,1129.49,1781.89Z" class="a"/></svg>